<svg width="33" height="32" viewBox="0 0 33 32" fill="none" xmlns="http://www.w3.org/2000/svg">
<path d="M27.8333 13.5867H23.9799C20.8199 13.5867 18.2466 11.0134 18.2466 7.85341V4.00008C18.2466 3.26675 17.6466 2.66675 16.9133 2.66675H11.2599C7.15325 2.66675 3.83325 5.33341 3.83325 10.0934V21.9067C3.83325 26.6667 7.15325 29.3334 11.2599 29.3334H21.7399C25.8466 29.3334 29.1666 26.6667 29.1666 21.9067V14.9201C29.1666 14.1867 28.5666 13.5867 27.8333 13.5867ZM15.8733 18.0401C15.6733 18.2401 15.4199 18.3334 15.1666 18.3334C14.9133 18.3334 14.6599 18.2401 14.4599 18.0401L13.4999 17.0801V22.6667C13.4999 23.2134 13.0466 23.6667 12.4999 23.6667C11.9533 23.6667 11.4999 23.2134 11.4999 22.6667V17.0801L10.5399 18.0401C10.1533 18.4267 9.51325 18.4267 9.12659 18.0401C8.73992 17.6534 8.73992 17.0134 9.12659 16.6267L11.7933 13.9601C11.8866 13.8801 11.9799 13.8134 12.0866 13.7601C12.1133 13.7467 12.1533 13.7334 12.1799 13.7201C12.2599 13.6934 12.3399 13.6801 12.4333 13.6667C12.4733 13.6667 12.4999 13.6667 12.5399 13.6667C12.6466 13.6667 12.7533 13.6934 12.8599 13.7334C12.8733 13.7334 12.8733 13.7334 12.8866 13.7334C12.9933 13.7734 13.0999 13.8534 13.1799 13.9334C13.1933 13.9467 13.2066 13.9467 13.2066 13.9601L15.8733 16.6267C16.2599 17.0134 16.2599 17.6534 15.8733 18.0401Z" fill="#3366FF"/>
<path d="M23.7399 11.7466C25.0066 11.7599 26.7666 11.7599 28.2732 11.7599C29.0332 11.7599 29.4332 10.8666 28.8999 10.3332C26.9799 8.39991 23.5399 4.91991 21.5666 2.94658C21.0199 2.39991 20.0732 2.77324 20.0732 3.53324V8.18658C20.0732 10.1332 21.7266 11.7466 23.7399 11.7466Z" fill="#3366FF"/>
</svg>
