<svg width="20" height="20" viewBox="0 0 20 20" fill="none" xmlns="http://www.w3.org/2000/svg">
<path d="M9.99996 14.9C9.79163 14.9 9.57496 14.825 9.40829 14.675L7.25829 12.7916C6.44996 12.0833 6.34163 10.8666 7.01663 10.025C7.69996 9.17495 8.91663 9.01662 9.79163 9.67495L9.99996 9.83329L10.2166 9.66662C11.0916 9.00829 12.3083 9.16662 12.9916 10.0166C13.6666 10.8583 13.5583 12.075 12.75 12.7833L10.6 14.6666C10.425 14.825 10.2083 14.9 9.99996 14.9ZM8.07496 11.85L9.99996 13.5333L11.925 11.85C12.2333 11.5833 12.275 11.125 12.0166 10.8083C11.7583 10.4833 11.3 10.425 10.9666 10.675L10.375 11.1166C10.15 11.2833 9.84996 11.2833 9.62496 11.1166L9.03329 10.675C8.70829 10.425 8.24163 10.4833 7.98329 10.8083C7.73329 11.125 7.77496 11.5833 8.07496 11.85Z" fill="#3366FF"/>
<path d="M14.1666 18.9584H5.83329C2.15829 18.9584 1.04163 17.8417 1.04163 14.1667V5.83341C1.04163 2.15841 2.15829 1.04175 5.83329 1.04175H7.08329C8.54163 1.04175 8.99996 1.51675 9.58329 2.29175L10.8333 3.95841C11.1083 4.32508 11.15 4.37508 11.6666 4.37508H14.1666C17.8416 4.37508 18.9583 5.49175 18.9583 9.16675V14.1667C18.9583 17.8417 17.8416 18.9584 14.1666 18.9584ZM5.83329 2.29175C2.84996 2.29175 2.29163 2.85841 2.29163 5.83341V14.1667C2.29163 17.1417 2.84996 17.7084 5.83329 17.7084H14.1666C17.15 17.7084 17.7083 17.1417 17.7083 14.1667V9.16675C17.7083 6.19175 17.15 5.62508 14.1666 5.62508H11.6666C10.6 5.62508 10.25 5.25842 9.83329 4.70841L8.58329 3.04175C8.14996 2.46675 8.01663 2.29175 7.08329 2.29175H5.83329V2.29175Z" fill="#3366FF"/>
</svg>
