<svg width="44" height="45" viewBox="0 0 44 45" fill="none" xmlns="http://www.w3.org/2000/svg">
<circle cx="22" cy="22.5" r="22" fill="#1939B7"/>
<g clip-path="url(#clip0_1_6200)">
<path d="M14.121 16.5C12.9495 16.5 11.8259 16.984 10.9975 17.8456L8.29383 20.6574C7.4654 21.5189 7 22.6874 7 23.9059C7 26.4432 8.97775 28.5 11.4174 28.5C12.589 28.5 13.7126 28.016 14.541 27.1544L16.4111 25.2095C16.4112 25.2095 16.4111 25.2094 16.4111 25.2095L21.86 19.5426C22.2557 19.1312 22.7923 18.9 23.3518 18.9C24.2886 18.9 25.0828 19.535 25.3581 20.4136L27.0778 18.6252C26.2933 17.3473 24.9177 16.5 23.3518 16.5C22.1802 16.5 21.0567 16.984 20.2282 17.8456L12.9092 25.4574C12.5136 25.8688 11.977 26.1 11.4174 26.1C10.2522 26.1 9.30769 25.1177 9.30769 23.9059C9.30769 23.324 9.52997 22.7659 9.92562 22.3544L12.6292 19.5426C13.0249 19.1312 13.5615 18.9 14.121 18.9C15.0578 18.9 15.852 19.535 16.1273 20.4137L17.847 18.6252C17.0625 17.3474 15.687 16.5 14.121 16.5Z" fill="white"/>
<path d="M22.14 25.4574C21.7443 25.8688 21.2077 26.1 20.6482 26.1C19.7115 26.1 18.9174 25.4652 18.642 24.5867L16.9224 26.3751C17.7069 27.6528 19.0824 28.5 20.6482 28.5C21.8197 28.5 22.9433 28.016 23.7717 27.1544L31.0907 19.5426C31.4864 19.1312 32.023 18.9 32.5826 18.9C33.7477 18.9 34.6923 19.8823 34.6923 21.0941C34.6923 21.676 34.47 22.2341 34.0744 22.6456L31.3707 25.4574C30.9751 25.8688 30.4385 26.1 29.8789 26.1C28.9422 26.1 28.1481 25.4651 27.8727 24.5865L26.1531 26.3749C26.9376 27.6527 28.3131 28.5 29.8789 28.5C31.0505 28.5 32.1741 28.016 33.0025 27.1544L35.7061 24.3426C36.5346 23.4811 37 22.3126 37 21.0941C37 18.5569 35.0222 16.5 32.5826 16.5C31.411 16.5 30.2874 16.984 29.459 17.8456L22.14 25.4574Z" fill="white"/>
</g>
<defs>
<clipPath id="clip0_1_6200">
<rect width="30" height="12" fill="white" transform="translate(7 16.5)"/>
</clipPath>
</defs>
</svg>
