<svg width="20" height="20" viewBox="0 0 20 20" fill="none" xmlns="http://www.w3.org/2000/svg">
<path d="M15 8.45829C14.9699 8.45829 14.9386 8.44601 14.9129 8.42036C14.8873 8.39472 14.875 8.36344 14.875 8.33329V6.66663C14.875 5.3316 14.6924 4.08243 13.9337 3.1742C13.1579 2.24546 11.8854 1.79163 10 1.79163C8.11455 1.79163 6.84211 2.24546 6.06627 3.1742C5.30756 4.08243 5.125 5.3316 5.125 6.66663V8.33329C5.125 8.36344 5.11272 8.39472 5.08707 8.42036C5.06143 8.44601 5.03015 8.45829 5 8.45829C4.96985 8.45829 4.93857 8.44601 4.91293 8.42036C4.88728 8.39472 4.875 8.36344 4.875 8.33329V6.66663C4.875 5.47951 5.02312 4.20693 5.70595 3.23538C6.36327 2.30014 7.59282 1.54163 10 1.54163C12.4072 1.54163 13.6367 2.30014 14.2941 3.23538C14.9769 4.20693 15.125 5.47951 15.125 6.66663V8.33329C15.125 8.36344 15.1127 8.39472 15.0871 8.42036C15.0614 8.44601 15.0301 8.45829 15 8.45829Z" fill="#292D32" stroke="#9CA3AF"/>
<path d="M10.0001 15.5417C8.78456 15.5417 7.79175 14.5489 7.79175 13.3333C7.79175 12.1178 8.78456 11.125 10.0001 11.125C11.2156 11.125 12.2084 12.1178 12.2084 13.3333C12.2084 14.5489 11.2156 15.5417 10.0001 15.5417ZM10.0001 11.375C8.92394 11.375 8.04175 12.2572 8.04175 13.3333C8.04175 14.4095 8.92394 15.2917 10.0001 15.2917C11.0762 15.2917 11.9584 14.4095 11.9584 13.3333C11.9584 12.2572 11.0762 11.375 10.0001 11.375Z" fill="#292D32" stroke="#9CA3AF"/>
<path d="M14.1667 18.4584H5.83342C4.01313 18.4584 2.99946 18.1736 2.41301 17.5871C1.82656 17.0007 1.54175 15.987 1.54175 14.1667V12.5C1.54175 10.6798 1.82656 9.66608 2.41301 9.07964C2.99946 8.49319 4.01313 8.20837 5.83342 8.20837H14.1667C15.987 8.20837 17.0007 8.49319 17.5872 9.07964C18.1736 9.66608 18.4584 10.6798 18.4584 12.5V14.1667C18.4584 15.987 18.1736 17.0007 17.5872 17.5871C17.0007 18.1736 15.987 18.4584 14.1667 18.4584ZM5.83342 8.45837C5.07876 8.45837 4.44235 8.49353 3.91817 8.60418C3.38841 8.71601 2.93735 8.91225 2.58992 9.26039C2.24254 9.60847 2.04732 10.0598 1.93626 10.5889C1.82637 11.1125 1.79175 11.7477 1.79175 12.5V14.1667C1.79175 14.9191 1.82637 15.5543 1.93626 16.0779C2.04732 16.607 2.24254 17.0583 2.58992 17.4064C2.93735 17.7545 3.38841 17.9507 3.91817 18.0626C4.44235 18.1732 5.07876 18.2084 5.83342 18.2084H14.1667C14.9214 18.2084 15.5578 18.1732 16.082 18.0626C16.6118 17.9507 17.0628 17.7545 17.4102 17.4064C17.7576 17.0583 17.9528 16.607 18.0639 16.0779C18.1738 15.5543 18.2084 14.9191 18.2084 14.1667V12.5C18.2084 11.7477 18.1738 11.1125 18.0639 10.5889C17.9528 10.0598 17.7576 9.60847 17.4102 9.26039C17.0628 8.91225 16.6118 8.71601 16.082 8.60418C15.5578 8.49353 14.9214 8.45837 14.1667 8.45837H5.83342Z" fill="#292D32" stroke="#9CA3AF"/>
</svg>
