<svg width="16" height="16" viewBox="0 0 16 16" fill="none" xmlns="http://www.w3.org/2000/svg">
<path d="M13.3333 3.83325H9.33331C9.05998 3.83325 8.83331 3.60659 8.83331 3.33325C8.83331 3.05992 9.05998 2.83325 9.33331 2.83325H13.3333C13.6066 2.83325 13.8333 3.05992 13.8333 3.33325C13.8333 3.60659 13.6066 3.83325 13.3333 3.83325Z" fill="#111827"/>
<path d="M11.3333 5.83325H9.33331C9.05998 5.83325 8.83331 5.60659 8.83331 5.33325C8.83331 5.05992 9.05998 4.83325 9.33331 4.83325H11.3333C11.6066 4.83325 11.8333 5.05992 11.8333 5.33325C11.8333 5.60659 11.6066 5.83325 11.3333 5.83325Z" fill="#111827"/>
<path d="M7.66665 14.4999C3.89998 14.4999 0.833313 11.4333 0.833313 7.66659C0.833313 3.89992 3.89998 0.833252 7.66665 0.833252C7.93998 0.833252 8.16665 1.05992 8.16665 1.33325C8.16665 1.60659 7.93998 1.83325 7.66665 1.83325C4.44665 1.83325 1.83331 4.45325 1.83331 7.66659C1.83331 10.8799 4.44665 13.4999 7.66665 13.4999C10.8866 13.4999 13.5 10.8799 13.5 7.66659C13.5 7.39325 13.7266 7.16659 14 7.16659C14.2733 7.16659 14.5 7.39325 14.5 7.66659C14.5 11.4333 11.4333 14.4999 7.66665 14.4999Z" fill="#111827"/>
<path d="M14.6667 15.1666C14.54 15.1666 14.4134 15.12 14.3134 15.02L12.98 13.6866C12.7867 13.4933 12.7867 13.1733 12.98 12.98C13.1734 12.7866 13.4934 12.7866 13.6867 12.98L15.02 14.3133C15.2134 14.5066 15.2134 14.8266 15.02 15.02C14.92 15.12 14.7934 15.1666 14.6667 15.1666Z" fill="#111827"/>
</svg>
