<svg width="28" height="34" viewBox="0 0 28 34" fill="none" xmlns="http://www.w3.org/2000/svg">
<path d="M17.9192 0.919039C17.5441 0.543966 17.0354 0.333252 16.505 0.333252H4.00008C3.11603 0.333252 2.26818 0.684441 1.64306 1.30956C1.01794 1.93468 0.666748 2.78253 0.666748 3.66659V30.3333C0.666748 31.2173 1.01794 32.0652 1.64306 32.6903C2.26818 33.3154 3.11603 33.6666 4.00008 33.6666H24.0001C24.8841 33.6666 25.732 33.3154 26.3571 32.6903C26.9822 32.0652 27.3334 31.2173 27.3334 30.3333V11.1617C27.3334 10.6312 27.1227 10.1225 26.7476 9.74747L17.9192 0.919039ZM9.83008 23.9833C9.31508 24.4666 8.55508 24.6833 7.67008 24.6833C7.49848 24.6851 7.32696 24.6751 7.15675 24.6533V27.0299H5.66675V20.4699C6.33917 20.3696 7.01861 20.3239 7.69841 20.3333C8.62675 20.3333 9.28675 20.5099 9.73175 20.8649C10.1551 21.2016 10.4417 21.7533 10.4417 22.4033C10.4401 23.0566 10.2234 23.6083 9.83008 23.9833ZM16.1751 26.2416C15.4751 26.8233 14.4101 27.0999 13.1084 27.0999C12.3284 27.0999 11.7767 27.0499 11.4017 26.9999V20.4716C12.0744 20.3734 12.7536 20.3272 13.4334 20.3333C14.6951 20.3333 15.5151 20.5599 16.1551 21.0433C16.8467 21.5566 17.2801 22.3749 17.2801 23.5499C17.2801 24.8216 16.8151 25.6999 16.1751 26.2416ZM22.3334 21.6166H19.7801V23.1349H22.1667V24.3583H19.7801V27.0316H18.2701V20.3833H22.3334V21.6166ZM17.3334 11.9999H15.6667V3.66659L24.0001 11.9999H17.3334Z" fill="#DB291F"/>
</svg>
